<svg id="Capa_1" enable-background="new 0 0 512 512" height="512" viewBox="0 0 512 512" width="512" xmlns="http://www.w3.org/2000/svg"><g><path d="m381.799 0h-251.598c-71.793 0-130.201 58.408-130.201 130.201v140.085c0 4.145 3.36 7.506 7.506 7.506s7.506-3.36 7.506-7.506v-140.085c0-63.515 51.674-115.189 115.189-115.189h251.598c63.515 0 115.189 51.674 115.189 115.189v251.598c0 18.862-4.557 36.68-12.629 52.411-2.233-9.085-5.367-17.949-9.188-26.492l-.016.007c-24.885-54.906-79.483-90.238-139.933-90.238h-4.022v-23.535c0-.018-.003-.036-.003-.055l.522-.592c10.54-11.937 18.144-25.982 22.424-41.05 20.582-3.366 35.781-21.042 35.781-42.205v-7.653c0-12.028-7.339-22.374-17.774-26.796v-40.934c0-19.698-6.388-38.302-18.473-53.803-2.55-3.269-7.267-3.853-10.534-1.304-3.269 2.549-3.854 7.265-1.305 10.534 10.01 12.837 15.301 28.251 15.301 44.572v19.044c-4.55-21.499-23.669-37.685-46.503-37.685h-109.272c-22.834 0-41.954 16.186-46.503 37.685v-70.156c0-11.823 9.619-21.442 21.441-21.442h108.283c11.934 0 23.762 2.957 34.207 8.551 3.654 1.959 8.204.582 10.16-3.073 1.958-3.654.582-8.203-3.073-10.16-12.617-6.758-26.896-10.33-41.294-10.33h-108.283c-20.1 0-36.453 16.353-36.453 36.453v92.048c-10.435 4.422-17.774 14.768-17.774 26.796v7.653c0 21.169 15.198 38.84 35.782 42.205 4.28 15.068 11.884 29.114 22.424 41.051l.523.592c0 .018-.003.036-.003.055v23.535h-4.023c-37.25 0-73.178 13.502-101.166 38.019-23.789 20.839-40.474 48.372-47.967 78.712-8.074-15.732-12.633-33.553-12.633-52.419v-76.745c0-4.145-3.36-7.506-7.506-7.506s-7.506 3.36-7.506 7.505v76.745c0 71.793 58.408 130.201 130.201 130.201h251.598c71.793 0 130.201-58.408 130.201-130.201v-251.598c0-71.793-58.408-130.201-130.201-130.201zm-23.626 223.381v-34.803c.872-.167 1.762-.255 2.667-.255 7.761 0 14.074 6.314 14.074 14.074v7.653c0 11.695-7.146 21.752-17.508 25.833.491-4.131.767-8.302.767-12.502zm-221.087-13.331v-7.653c0-7.76 6.313-14.074 14.074-14.074.91 0 1.796.109 2.667.275v34.783c0 4.201.275 8.372.767 12.503-10.363-4.079-17.508-14.135-17.508-25.834zm31.753 13.331v-59.818c0-17.934 14.59-32.525 32.525-32.525h109.273c17.935 0 32.525 14.591 32.525 32.525v59.818c0 22.11-8.06 43.414-22.694 59.989l-23.988 27.167c-10.246 11.604-25 18.259-40.479 18.259s-30.233-6.655-40.479-18.259l-23.988-27.167c-14.635-16.575-22.695-37.879-22.695-59.989zm147.349 87.514v21.445c0 21.194-17.243 38.437-38.437 38.437h-43.504c-21.194 0-38.437-17.243-38.437-38.437v-21.445l8.457 9.577c13.094 14.83 31.949 23.335 51.732 23.335s38.638-8.505 51.732-23.334zm-276.845 141.627c.085-.31.159-.626.205-.952 1.969-13.969 6.036-27.228 11.844-39.482l1.752 1.706c22.42 21.822 38.344 48.995 46.417 79.05-24.175-6.681-45.188-21.056-60.218-40.322zm373.103 40.319c6.137-22.846 16.806-44.028 31.422-62.458 2.345-2.957 2.18-7.178-.438-9.895-3.151-3.271-8.464-3.011-11.286.546-17.411 21.942-29.666 47.478-35.939 75.05-4.721.592-9.527.905-14.405.905h-251.599c-4.873 0-9.673-.313-14.388-.903-8.073-35.495-26.08-67.612-52.206-93.041l-4.757-4.63c24.675-39.737 68.827-65.916 117.927-65.916h4.027c.086 29.399 24.025 53.291 53.444 53.291h43.504c29.419 0 53.358-23.892 53.444-53.291h4.027c55.025 0 104.684 32.441 126.858 82.734 5.248 11.896 8.796 24.454 10.519 37.366-15.025 19.225-36.013 33.57-60.154 40.242z"/><path d="m210.447 211.226c6.121 0 11.084-4.963 11.084-11.084s-4.962-11.084-11.084-11.084-11.084 4.963-11.084 11.084 4.963 11.084 11.084 11.084z"/><path d="m301.553 211.226c6.122 0 11.084-4.963 11.084-11.084s-4.963-11.084-11.084-11.084-11.084 4.963-11.084 11.084 4.962 11.084 11.084 11.084z"/><path d="m213.825 245.22c-2.119 3.313-2.402 7.417-.758 10.977 7.706 16.695 24.559 27.483 42.933 27.483s35.227-10.788 42.932-27.482c1.645-3.561 1.361-7.666-.757-10.979-2.132-3.332-5.762-5.32-9.712-5.32h-64.925c-3.951 0-7.581 1.989-9.713 5.321zm68.596 9.691c-5.975 8.502-15.828 13.758-26.421 13.758s-20.445-5.255-26.421-13.758z"/></g></svg>