<svg width="631.9786865234374px" height="138.830029296875px" xmlns="http://www.w3.org/2000/svg" viewBox="-65.98934326171872 5.584985351562494 631.9786865234374 138.830029296875" style="background: rgba(255, 255, 255, 0);" preserveAspectRatio="xMidYMid"><defs><linearGradient id="editing-outline-gradient" x1="-0.5" x2="1.5" y1="0.5000000000000002" y2="0.4999999999999998"><stop offset="0" stop-color="#ffffff"></stop><stop offset="1" stop-color="#ffffff"></stop></linearGradient><filter id="editing-outline" x="-100%" y="-100%" width="300%" height="300%"><feMorphology in="SourceGraphic" operator="dilate" radius="2" result="outline"></feMorphology><feComposite operator="out" in="outline" in2="SourceAlpha"></feComposite></filter></defs><g filter="url(#editing-outline)"><g transform="translate(24.892189979553223, 99.35500144958496)"><path d="M21.25 0.64L21.06 0.19L21.31-2.30L21.31-2.30Q24.58-2.56 25.79-3.07L25.79-3.07L25.79-3.07Q27.01-3.58 27.01-4.74L27.01-4.74L27.01-4.74Q27.01-6.02 26.43-7.81L26.43-7.81L24.32-14.78L24.32-14.78Q22.78-14.85 17.66-14.85L17.66-14.85L17.66-14.85Q14.59-14.85 10.69-14.34L10.69-14.34L8.32-7.68L8.32-7.68Q7.74-5.95 7.74-5.18L7.74-5.18L7.74-5.18Q7.74-3.78 8.64-3.17L8.64-3.17L8.64-3.17Q9.54-2.56 11.58-2.56L11.58-2.56L15.23-2.56L15.36-2.30L14.98 0.45L14.98 0.45Q14.21 0.38 11.46 0.19L11.46 0.19L11.46 0.19Q8.70 0 6.08 0L6.08 0L6.08 0Q3.71 0 1.70 0.06L1.70 0.06L1.70 0.06Q-0.32 0.13-0.96 0.19L-0.96 0.19L-0.45-2.82L-0.45-2.82Q1.34-3.01 2.43-4.06L2.43-4.06L2.43-4.06Q3.52-5.12 4.54-7.74L4.54-7.74L17.02-40.45L21.06-41.54L21.57-41.54L21.57-41.54Q21.95-40 23.52-34.43L23.52-34.43L23.52-34.43Q25.09-28.86 27.36-21.25L27.36-21.25L27.36-21.25Q29.63-13.63 31.74-7.23L31.74-7.23L31.74-7.23Q32.51-4.86 33.79-3.90L33.79-3.90L33.79-3.90Q35.07-2.94 37.89-2.69L37.89-2.69L38.02-2.43L37.57 0.19L37.57 0.19Q36.80 0.19 34.78 0.10L34.78 0.10L34.78 0.10Q32.77 0 30.78 0L30.78 0L30.78 0Q27.71 0 24.86 0.26L24.86 0.26L24.86 0.26Q22.02 0.51 21.25 0.64L21.25 0.64ZM11.84-17.47L17.47-17.47L17.47-17.47Q19.78-17.47 23.42-17.79L23.42-17.79L18.37-34.56L17.92-34.56L11.84-17.47ZM41.15-2.30L41.15-2.30Q43.07-2.50 43.71-3.55L43.71-3.55L43.71-3.55Q44.35-4.61 44.35-7.62L44.35-7.62L44.35-21.70L44.35-21.70Q44.35-23.81 43.78-24.70L43.78-24.70L43.78-24.70Q43.20-25.60 41.92-25.60L41.92-25.60L41.92-25.60Q41.41-25.60 41.06-25.54L41.06-25.54L41.06-25.54Q40.70-25.47 40.58-25.41L40.58-25.41L40.26-25.86L40.45-27.84L40.45-27.84Q42.88-28.29 45.60-28.93L45.60-28.93L45.60-28.93Q48.32-29.57 49.09-29.76L49.09-29.76L49.54-29.38L49.54-29.38Q49.41-28.80 49.15-26.72L49.15-26.72L49.15-26.72Q48.90-24.64 48.96-22.78L48.96-22.78L49.22-22.59L49.22-22.59Q51.14-25.60 53.73-27.52L53.73-27.52L53.73-27.52Q56.32-29.44 58.24-29.44L58.24-29.44L58.24-29.44Q59.14-29.44 59.62-29.34L59.62-29.34L59.62-29.34Q60.10-29.25 60.22-29.18L60.22-29.18L60.42-28.93L60.42-28.93Q60.29-28.03 59.87-25.12L59.87-25.12L59.87-25.12Q59.46-22.21 59.39-19.78L59.39-19.78L56.90-19.58L56.90-19.58Q56.90-22.21 56.54-23.07L56.54-23.07L56.54-23.07Q56.19-23.94 55.17-23.94L55.17-23.94L55.17-23.94Q53.76-23.94 52.16-22.75L52.16-22.75L52.16-22.75Q50.56-21.57 49.22-19.58L49.22-19.58L49.22-19.58Q49.15-17.73 48.96-13.44L48.96-13.44L48.96-13.44Q48.77-9.15 48.70-6.53L48.70-6.53L48.70-6.53Q48.70-4.35 49.34-3.58L49.34-3.58L49.34-3.58Q49.98-2.82 51.78-2.82L51.78-2.82L51.78-2.82Q52.61-2.82 53.44-2.88L53.44-2.88L53.44-2.88Q54.27-2.94 54.59-2.94L54.59-2.94L54.66-2.69L54.08 0.13L54.08 0.13Q53.44 0.13 51.52 0.06L51.52 0.06L51.52 0.06Q49.60 0 47.55 0L47.55 0L47.55 0Q45.18 0 43.26 0.10L43.26 0.10L43.26 0.10Q41.34 0.19 40.83 0.26L40.83 0.26L41.15-2.30ZM82.69-1.86L82.69-1.86Q84.61-2.37 85.44-3.36L85.44-3.36L85.44-3.36Q86.27-4.35 86.27-6.02L86.27-6.02L86.53-18.69L86.53-18.69Q86.53-21.89 85.15-23.62L85.15-23.62L85.15-23.62Q83.78-25.34 81.22-25.34L81.22-25.34L81.22-25.34Q79.17-25.34 77.06-24.29L77.06-24.29L77.06-24.29Q74.94-23.23 73.34-22.02L73.34-22.02L73.34-22.02Q72.77-8.77 72.77-6.27L72.77-6.27L72.77-6.27Q72.77-4.29 73.28-3.49L73.28-3.49L73.28-3.49Q73.79-2.69 75.07-2.69L75.07-2.69L75.07-2.69Q75.78-2.69 76.42-2.75L76.42-2.75L76.42-2.75Q77.06-2.82 77.31-2.82L77.31-2.82L77.44-2.56L76.86 0.19L76.86 0.19Q76.29 0.13 74.62 0.06L74.62 0.06L74.62 0.06Q72.96 0 71.04 0L71.04 0L71.04 0Q68.93 0 67.14 0.06L67.14 0.06L67.14 0.06Q65.34 0.13 64.70 0.13L64.70 0.13L65.09-2.50L65.09-2.50Q66.94-2.69 67.68-3.46L67.68-3.46L67.68-3.46Q68.42-4.22 68.42-6.02L68.42-6.02L68.42-21.63L68.42-21.63Q68.42-23.81 67.71-24.67L67.71-24.67L67.71-24.67Q67.01-25.54 65.28-25.54L65.28-25.54L64.58-25.54L64.38-25.79L64.58-27.90L64.58-27.90Q67.33-28.35 70.05-28.96L70.05-28.96L70.05-28.96Q72.77-29.57 73.54-29.76L73.54-29.76L73.92-29.25L73.92-29.25Q73.79-28.86 73.54-27.62L73.54-27.62L73.54-27.62Q73.28-26.37 73.22-25.02L73.22-25.02L73.34-24.83L73.34-24.83Q80.51-29.70 82.75-29.70L82.75-29.70L82.75-29.70Q85.82-29.70 87.94-28.38L87.94-28.38L87.94-28.38Q90.05-27.07 90.94-24.64L90.94-24.64L90.94-24.64Q93.25-26.30 96.13-28L96.13-28L96.13-28Q99.01-29.70 100.61-29.70L100.61-29.70L100.61-29.70Q104.64-29.70 107.01-27.46L107.01-27.46L107.01-27.46Q109.38-25.22 109.38-21.44L109.38-21.44L109.38-21.44Q109.38-20.80 108.99-15.55L108.99-15.55L108.99-15.55Q108.48-8.90 108.48-6.27L108.48-6.27L108.48-6.27Q108.48-4.29 108.99-3.49L108.99-3.49L108.99-3.49Q109.50-2.69 110.78-2.69L110.78-2.69L110.78-2.69Q111.49-2.69 112.13-2.75L112.13-2.75L112.13-2.75Q112.77-2.82 113.02-2.82L113.02-2.82L113.15-2.56L112.58 0.19L112.58 0.19Q112 0.13 110.34 0.06L110.34 0.06L110.34 0.06Q108.67 0 106.75 0L106.75 0L106.75 0Q105.09 0 103.07 0.16L103.07 0.16L103.07 0.16Q101.06 0.32 100.42 0.38L100.42 0.38L100.74-2.24L100.74-2.24Q102.59-2.56 103.36-3.39L103.36-3.39L103.36-3.39Q104.13-4.22 104.13-6.02L104.13-6.02L104.38-18.69L104.38-18.69Q104.38-21.89 103.01-23.62L103.01-23.62L103.01-23.62Q101.63-25.34 99.07-25.34L99.07-25.34L99.07-25.34Q95.74-25.34 91.33-22.14L91.33-22.14L90.62-6.27L90.62-6.27Q90.62-4.42 91.14-3.55L91.14-3.55L91.14-3.55Q91.65-2.69 92.86-2.69L92.86-2.69L92.86-2.69Q93.57-2.69 94.21-2.75L94.21-2.75L94.21-2.75Q94.85-2.82 95.10-2.82L95.10-2.82L95.23-2.56L94.72 0.19L94.72 0.19Q94.14 0.13 92.54 0.06L92.54 0.06L92.54 0.06Q90.94 0 89.02 0L89.02 0L89.02 0Q87.36 0 85.22 0.32L85.22 0.32L85.22 0.32Q83.07 0.64 82.43 0.77L82.43 0.77L82.69-1.86ZM138.94 0.77L138.94 0.77Q133.76 0.77 133.25-4.42L133.25-4.42L132.99-4.48L132.99-4.48Q130.69-2.18 128.80-0.83L128.80-0.83L128.80-0.83Q126.91 0.51 125.95 0.51L125.95 0.51L125.95 0.51Q122.37 0.51 120.06-1.73L120.06-1.73L120.06-1.73Q117.76-3.97 117.76-7.42L117.76-7.42L117.76-7.42Q117.76-9.28 118.69-10.69L118.69-10.69L118.69-10.69Q119.62-12.10 121.15-12.54L121.15-12.54L133.31-15.87L133.38-18.69L133.38-18.69Q133.38-21.89 131.90-23.68L131.90-23.68L131.90-23.68Q130.43-25.47 127.74-25.47L127.74-25.47L127.74-25.47Q125.95-25.47 123.97-24.64L123.97-24.64L123.97-24.64Q121.98-23.81 120.06-22.27L120.06-22.27L119.74-22.46L118.98-25.22L118.98-25.22Q121.98-26.94 125.02-28.32L125.02-28.32L125.02-28.32Q128.06-29.70 129.41-29.70L129.41-29.70L129.41-29.70Q133.57-29.70 135.94-27.52L135.94-27.52L135.94-27.52Q138.30-25.34 138.30-21.44L138.30-21.44L138.30-21.44Q138.30-20.03 137.86-15.68L137.86-15.68L137.86-15.68Q137.15-8.64 137.15-6.72L137.15-6.72L137.15-6.72Q137.15-5.31 137.86-4.54L137.86-4.54L137.86-4.54Q138.56-3.78 139.78-3.78L139.78-3.78L139.78-3.78Q140.80-3.78 141.89-4.26L141.89-4.26L141.89-4.26Q142.98-4.74 143.62-5.38L143.62-5.38L144.51-4.35L144.51-4.35Q143.55-2.75 142.05-1.25L142.05-1.25L142.05-1.25Q140.54 0.26 138.94 0.77L138.94 0.77ZM127.04-3.84L127.04-3.84Q128.26-3.84 129.89-4.70L129.89-4.70L129.89-4.70Q131.52-5.57 132.86-6.91L132.86-6.91L133.18-13.44L124.48-10.82L124.48-10.82Q122.62-10.24 122.62-8.13L122.62-8.13L122.62-8.13Q122.62-6.27 123.87-5.06L123.87-5.06L123.87-5.06Q125.12-3.84 127.04-3.84L127.04-3.84ZM165.89-1.86L165.89-1.86Q167.81-2.37 168.64-3.36L168.64-3.36L168.64-3.36Q169.47-4.35 169.47-6.02L169.47-6.02L169.73-18.69L169.73-18.69Q169.73-21.89 168.35-23.62L168.35-23.62L168.35-23.62Q166.98-25.34 164.42-25.34L164.42-25.34L164.42-25.34Q162.37-25.34 160.26-24.29L160.26-24.29L160.26-24.29Q158.14-23.23 156.54-22.02L156.54-22.02L156.54-22.02Q155.97-8.77 155.97-6.27L155.97-6.27L155.97-6.27Q155.97-4.29 156.48-3.49L156.48-3.49L156.48-3.49Q156.99-2.69 158.27-2.69L158.27-2.69L158.27-2.69Q158.98-2.69 159.62-2.75L159.62-2.75L159.62-2.75Q160.26-2.82 160.51-2.82L160.51-2.82L160.64-2.56L160.06 0.19L160.06 0.19Q159.49 0.13 157.82 0.06L157.82 0.06L157.82 0.06Q156.16 0 154.24 0L154.24 0L154.24 0Q152.58 0 150.56 0.16L150.56 0.16L150.56 0.16Q148.54 0.32 147.90 0.38L147.90 0.38L148.22-2.24L148.22-2.24Q150.08-2.56 150.85-3.39L150.85-3.39L150.85-3.39Q151.62-4.22 151.62-6.02L151.62-6.02L151.62-21.63L151.62-21.63Q151.62-23.81 150.91-24.67L150.91-24.67L150.91-24.67Q150.21-25.54 148.48-25.54L148.48-25.54L147.78-25.54L147.58-25.79L147.78-27.90L147.78-27.90Q150.53-28.35 153.25-28.96L153.25-28.96L153.25-28.96Q155.97-29.57 156.74-29.76L156.74-29.76L157.12-29.25L157.12-29.25Q156.99-28.86 156.74-27.62L156.74-27.62L156.74-27.62Q156.48-26.37 156.42-25.02L156.42-25.02L156.54-24.83L156.54-24.83Q163.84-29.70 165.95-29.70L165.95-29.70L165.95-29.70Q169.98-29.70 172.35-27.46L172.35-27.46L172.35-27.46Q174.72-25.22 174.72-21.44L174.72-21.44L174.72-21.44Q174.72-20.80 174.34-15.55L174.34-15.55L174.34-15.55Q173.82-8.90 173.82-6.27L173.82-6.27L173.82-6.27Q173.82-4.42 174.34-3.55L174.34-3.55L174.34-3.55Q174.85-2.69 176.06-2.69L176.06-2.69L176.06-2.69Q176.77-2.69 177.41-2.75L177.41-2.75L177.41-2.75Q178.05-2.82 178.30-2.82L178.30-2.82L178.43-2.56L177.92 0.19L177.92 0.19Q177.34 0.13 175.74 0.06L175.74 0.06L175.74 0.06Q174.14 0 172.22 0L172.22 0L172.22 0Q170.56 0 168.42 0.32L168.42 0.32L168.42 0.32Q166.27 0.64 165.63 0.77L165.63 0.77L165.89-1.86ZM208.83 0.77L208.83 0.77Q203.84 0.77 203.14-3.78L203.14-3.78L202.69-3.97L202.69-3.97Q196.03 0.58 194.69 0.58L194.69 0.58L194.69 0.58Q191.04 0.58 188.22-1.12L188.22-1.12L188.22-1.12Q185.41-2.82 183.87-5.89L183.87-5.89L183.87-5.89Q182.34-8.96 182.34-12.93L182.34-12.93L182.34-12.93Q182.34-17.47 184.48-21.31L184.48-21.31L184.48-21.31Q186.62-25.15 190.30-27.42L190.30-27.42L190.30-27.42Q193.98-29.70 198.27-29.70L198.27-29.70L198.27-29.70Q200.32-29.70 202.69-29.44L202.69-29.44L202.69-40.06L202.69-40.06Q202.69-43.52 200.32-43.52L200.32-43.52L200.32-43.52Q199.87-43.52 199.36-43.42L199.36-43.42L199.36-43.42Q198.85-43.33 198.72-43.26L198.72-43.26L198.98-45.63L198.98-45.63Q201.73-46.02 204.67-46.66L204.67-46.66L204.67-46.66Q207.62-47.30 208.45-47.49L208.45-47.49L208.83-46.66L208.83-46.66Q208.13-45.57 207.58-33.15L207.58-33.15L207.58-33.15Q207.04-20.74 207.04-6.72L207.04-6.72L207.04-6.72Q207.04-5.31 207.74-4.54L207.74-4.54L207.74-4.54Q208.45-3.78 209.66-3.78L209.66-3.78L209.66-3.78Q210.56-3.78 211.42-4.13L211.42-4.13L211.42-4.13Q212.29-4.48 212.83-4.86L212.83-4.86L212.83-4.86Q213.38-5.25 213.50-5.38L213.50-5.38L214.40-4.35L214.40-4.35Q214.21-4.03 213.44-2.98L213.44-2.98L213.44-2.98Q212.67-1.92 211.42-0.77L211.42-0.77L211.42-0.77Q210.18 0.38 208.83 0.77L208.83 0.77ZM195.71-3.58L195.71-3.58Q197.06-3.58 198.62-4.35L198.62-4.35L198.62-4.35Q200.19-5.12 201.28-5.92L201.28-5.92L201.28-5.92Q202.37-6.72 202.69-6.98L202.69-6.98L202.69-24.51L202.69-24.51Q202.50-24.64 201.73-24.99L201.73-24.99L201.73-24.99Q200.96-25.34 199.58-25.66L199.58-25.66L199.58-25.66Q198.21-25.98 196.48-25.98L196.48-25.98L196.48-25.98Q192.19-25.98 189.73-23.07L189.73-23.07L189.73-23.07Q187.26-20.16 187.26-15.10L187.26-15.10L187.26-15.10Q187.26-11.90 188.38-9.28L188.38-9.28L188.38-9.28Q189.50-6.66 191.46-5.12L191.46-5.12L191.46-5.12Q193.41-3.58 195.71-3.58L195.71-3.58ZM252.48 1.22L240.19-33.28L239.87-33.28L239.87-33.28Q239.49-29.06 238.53-17.44L238.53-17.44L238.53-17.44Q237.57-5.82 237.57-4.80L237.57-4.80L237.57-4.80Q237.57-2.82 239.55-2.82L239.55-2.82L242.18-2.88L242.30-2.62L241.73 0.26L241.73 0.26Q241.02 0.19 239.20 0.10L239.20 0.10L239.20 0.10Q237.38 0 235.52 0L235.52 0L235.52 0Q233.92 0 232.22 0.22L232.22 0.22L232.22 0.22Q230.53 0.45 230.02 0.51L230.02 0.51L230.34-2.43L230.34-2.43Q232.38-2.69 233.28-3.74L233.28-3.74L233.28-3.74Q234.18-4.80 234.43-7.36L234.43-7.36L234.43-7.36Q235.07-13.38 236.13-23.58L236.13-23.58L236.13-23.58Q237.18-33.79 237.18-35.01L237.18-35.01L237.18-35.01Q237.18-36.67 235.87-37.50L235.87-37.50L235.87-37.50Q234.56-38.34 231.68-38.53L231.68-38.53L231.49-38.85L232-41.09L232-41.09Q232.83-41.02 235.26-40.90L235.26-40.90L235.26-40.90Q237.70-40.77 238.98-40.77L238.98-40.77L238.98-40.77Q240.13-40.77 241.50-40.86L241.50-40.86L241.50-40.86Q242.88-40.96 243.33-41.02L243.33-41.02L243.33-41.02Q245.89-32.77 248.29-25.70L248.29-25.70L248.29-25.70Q250.69-18.62 252.22-14.46L252.22-14.46L252.22-14.46Q253.76-10.30 254.14-9.28L254.14-9.28L254.46-9.28L254.46-9.28Q255.36-11.65 258.56-20.54L258.56-20.54L258.56-20.54Q261.76-29.44 265.54-40.90L265.54-40.90L265.54-40.90Q265.54-40.96 267.26-40.83L267.26-40.83L269.76-40.77L269.76-40.77Q270.98-40.77 273.41-40.93L273.41-40.93L273.41-40.93Q275.84-41.09 276.67-41.15L276.67-41.15L276.80-40.90L276.48-38.53L276.48-38.53Q273.73-38.21 272.58-37.41L272.58-37.41L272.58-37.41Q271.42-36.61 271.42-35.01L271.42-35.01L271.42-35.01Q271.42-33.60 272-24.54L272-24.54L272-24.54Q272.58-15.49 273.09-8.90L273.09-8.90L273.09-8.90Q273.41-6.27 273.73-5.02L273.73-5.02L273.73-5.02Q274.05-3.78 274.62-3.30L274.62-3.30L274.62-3.30Q275.20-2.82 276.22-2.82L276.22-2.82L276.22-2.82Q276.80-2.82 277.31-2.88L277.31-2.88L277.31-2.88Q277.82-2.94 278.02-2.94L278.02-2.94L278.14-2.69L277.57 0.19L277.57 0.19Q276.93 0.13 275.17 0.06L275.17 0.06L275.17 0.06Q273.41 0 271.49 0L271.49 0L271.49 0Q269.76 0 267.62 0.22L267.62 0.22L267.62 0.22Q265.47 0.45 264.83 0.51L264.83 0.51L265.09-2.43L265.09-2.43Q267.07-2.69 267.97-3.46L267.97-3.46L267.97-3.46Q268.86-4.22 268.86-5.63L268.86-5.63L268.86-5.63Q268.86-6.98 267.94-18.11L267.94-18.11L267.94-18.11Q267.01-29.25 266.69-33.28L266.69-33.28L266.37-33.28L254.02 0.77L252.48 1.22ZM297.02 0.77L297.02 0.77Q293.06 0.77 289.98-0.99L289.98-0.99L289.98-0.99Q286.91-2.75 285.25-5.98L285.25-5.98L285.25-5.98Q283.58-9.22 283.58-13.38L283.58-13.38L283.58-13.38Q283.58-17.66 285.54-21.44L285.54-21.44L285.54-21.44Q287.49-25.22 290.75-27.46L290.75-27.46L290.75-27.46Q294.02-29.70 297.73-29.70L297.73-29.70L297.73-29.70Q302.40-29.70 304.83-27.33L304.83-27.33L304.83-27.33Q307.26-24.96 307.26-20.42L307.26-20.42L307.26-20.42Q307.26-18.56 306.88-17.28L306.88-17.28L306.05-16.51L288.38-16.51L288.38-16.51Q288.32-10.30 290.85-6.94L290.85-6.94L290.85-6.94Q293.38-3.58 297.92-3.58L297.92-3.58L297.92-3.58Q301.50-3.58 305.73-5.57L305.73-5.57L306.11-5.44L306.82-3.58L306.82-3.58Q304.51-1.92 301.73-0.58L301.73-0.58L301.73-0.58Q298.94 0.77 297.02 0.77L297.02 0.77ZM288.64-18.88L300.22-19.46L300.22-19.46Q301.18-19.58 301.50-19.90L301.50-19.90L301.50-19.90Q301.82-20.22 301.82-21.18L301.82-21.18L301.82-21.18Q301.82-23.74 300.45-25.09L300.45-25.09L300.45-25.09Q299.07-26.43 296.51-26.43L296.51-26.43L296.51-26.43Q293.50-26.43 291.36-24.38L291.36-24.38L291.36-24.38Q289.22-22.34 288.64-18.88L288.64-18.88ZM315.71-22.21L315.71-22.21Q315.71-25.66 313.34-25.66L313.34-25.66L313.34-25.66Q312.90-25.66 312.38-25.57L312.38-25.57L312.38-25.57Q311.87-25.47 311.74-25.41L311.74-25.41L312-27.78L312-27.78Q314.50-28.16 317.38-28.83L317.38-28.83L317.38-28.83Q320.26-29.50 321.15-29.70L321.15-29.70L321.54-28.93L321.54-28.93Q320.90-27.26 320.38-21.38L320.38-21.38L320.38-21.38Q319.87-15.49 319.87-9.92L319.87-9.92L319.87-9.92Q319.87-3.65 324.99-3.65L324.99-3.65L324.99-3.65Q326.91-3.65 328.58-4.58L328.58-4.58L328.58-4.58Q330.24-5.50 332.74-7.30L332.74-7.30L332.74-22.14L332.74-22.14Q332.74-24.06 332.03-24.83L332.03-24.83L332.03-24.83Q331.33-25.60 329.54-25.60L329.54-25.60L328-25.54L328.26-27.84L328.26-27.84Q331.07-28.22 334.14-28.86L334.14-28.86L334.14-28.86Q337.22-29.50 338.11-29.70L338.11-29.70L338.50-28.93L338.50-28.93Q337.92-27.46 337.50-20.93L337.50-20.93L337.50-20.93Q337.09-14.40 337.09-6.72L337.09-6.72L337.09-6.72Q337.09-5.31 337.79-4.54L337.79-4.54L337.79-4.54Q338.50-3.78 339.71-3.78L339.71-3.78L339.71-3.78Q340.61-3.78 341.47-4.13L341.47-4.13L341.47-4.13Q342.34-4.48 342.88-4.86L342.88-4.86L342.88-4.86Q343.42-5.25 343.55-5.38L343.55-5.38L344.45-4.35L344.45-4.35Q344.19-3.97 343.26-2.75L343.26-2.75L343.26-2.75Q342.34-1.54 341.09-0.38L341.09-0.38L341.09-0.38Q339.84 0.77 338.88 0.77L338.88 0.77L338.88 0.77Q333.70 0.77 333.18-4.42L333.18-4.42L332.86-4.54L332.86-4.54Q329.79-2.18 327.33-0.70L327.33-0.70L327.33-0.70Q324.86 0.77 323.97 0.77L323.97 0.77L323.97 0.77Q319.87 0.77 317.66-1.15L317.66-1.15L317.66-1.15Q315.46-3.07 315.46-6.66L315.46-6.66L315.71-22.21ZM365.50-1.86L365.50-1.86Q367.42-2.37 368.26-3.36L368.26-3.36L368.26-3.36Q369.09-4.35 369.09-6.02L369.09-6.02L369.34-18.69L369.34-18.69Q369.34-21.89 367.97-23.62L367.97-23.62L367.97-23.62Q366.59-25.34 364.03-25.34L364.03-25.34L364.03-25.34Q361.98-25.34 359.87-24.29L359.87-24.29L359.87-24.29Q357.76-23.23 356.16-22.02L356.16-22.02L356.16-22.02Q355.58-8.77 355.58-6.27L355.58-6.27L355.58-6.27Q355.58-4.29 356.10-3.49L356.10-3.49L356.10-3.49Q356.61-2.69 357.89-2.69L357.89-2.69L357.89-2.69Q358.59-2.69 359.23-2.75L359.23-2.75L359.23-2.75Q359.87-2.82 360.13-2.82L360.13-2.82L360.26-2.56L359.68 0.19L359.68 0.19Q359.10 0.13 357.44 0.06L357.44 0.06L357.44 0.06Q355.78 0 353.86 0L353.86 0L353.86 0Q352.19 0 350.18 0.16L350.18 0.16L350.18 0.16Q348.16 0.32 347.52 0.38L347.52 0.38L347.84-2.24L347.84-2.24Q349.70-2.56 350.46-3.39L350.46-3.39L350.46-3.39Q351.23-4.22 351.23-6.02L351.23-6.02L351.23-21.63L351.23-21.63Q351.23-23.81 350.53-24.67L350.53-24.67L350.53-24.67Q349.82-25.54 348.10-25.54L348.10-25.54L347.39-25.54L347.20-25.79L347.39-27.90L347.39-27.90Q350.14-28.35 352.86-28.96L352.86-28.96L352.86-28.96Q355.58-29.57 356.35-29.76L356.35-29.76L356.74-29.25L356.74-29.25Q356.61-28.86 356.35-27.62L356.35-27.62L356.35-27.62Q356.10-26.37 356.03-25.02L356.03-25.02L356.16-24.83L356.16-24.83Q363.46-29.70 365.57-29.70L365.57-29.70L365.57-29.70Q369.60-29.70 371.97-27.46L371.97-27.46L371.97-27.46Q374.34-25.22 374.34-21.44L374.34-21.44L374.34-21.44Q374.34-20.80 373.95-15.55L373.95-15.55L373.95-15.55Q373.44-8.90 373.44-6.27L373.44-6.27L373.44-6.27Q373.44-4.42 373.95-3.55L373.95-3.55L373.95-3.55Q374.46-2.69 375.68-2.69L375.68-2.69L375.68-2.69Q376.38-2.69 377.02-2.75L377.02-2.75L377.02-2.75Q377.66-2.82 377.92-2.82L377.92-2.82L378.05-2.56L377.54 0.19L377.54 0.19Q376.96 0.13 375.36 0.06L375.36 0.06L375.36 0.06Q373.76 0 371.84 0L371.84 0L371.84 0Q370.18 0 368.03 0.32L368.03 0.32L368.03 0.32Q365.89 0.64 365.25 0.77L365.25 0.77L365.50-1.86ZM382.46 0.77L382.72-1.86L382.72-1.86Q384.64-2.37 385.47-3.36L385.47-3.36L385.47-3.36Q386.30-4.35 386.30-6.02L386.30-6.02L386.30-22.27L386.30-22.27Q386.30-25.73 383.94-25.73L383.94-25.73L383.94-25.73Q383.49-25.73 382.98-25.63L382.98-25.63L382.98-25.63Q382.46-25.54 382.34-25.47L382.34-25.47L382.59-27.84L382.59-27.84Q385.28-28.22 388.13-28.86L388.13-28.86L388.13-28.86Q390.98-29.50 391.81-29.70L391.81-29.70L392.13-28.93L392.13-28.93Q391.55-27.58 391.10-20.70L391.10-20.70L391.10-20.70Q390.66-13.82 390.66-6.27L390.66-6.27L390.66-6.27Q390.66-4.42 391.17-3.55L391.17-3.55L391.17-3.55Q391.68-2.69 392.90-2.69L392.90-2.69L392.90-2.69Q393.60-2.69 394.24-2.75L394.24-2.75L394.24-2.75Q394.88-2.82 395.14-2.82L395.14-2.82L395.26-2.56L394.75 0.19L394.75 0.19Q394.18 0.13 392.58 0.06L392.58 0.06L392.58 0.06Q390.98 0 389.06 0L389.06 0L389.06 0Q387.39 0 385.25 0.32L385.25 0.32L385.25 0.32Q383.10 0.64 382.46 0.77L382.46 0.77ZM388.10-37.25L388.10-37.25Q386.62-37.25 385.79-38.21L385.79-38.21L385.79-38.21Q384.96-39.17 384.96-40.51L384.96-40.51L384.96-40.51Q384.96-42.05 386.05-43.17L386.05-43.17L386.05-43.17Q387.14-44.29 388.74-44.29L388.74-44.29L388.74-44.29Q390.21-44.29 391.04-43.33L391.04-43.33L391.04-43.33Q391.87-42.37 391.87-41.02L391.87-41.02L391.87-41.02Q391.87-39.49 390.78-38.37L390.78-38.37L390.78-38.37Q389.70-37.25 388.10-37.25L388.10-37.25ZM413.44 0.77L413.44 0.77Q409.47 0.77 406.40-0.99L406.40-0.99L406.40-0.99Q403.33-2.75 401.66-5.98L401.66-5.98L401.66-5.98Q400-9.22 400-13.38L400-13.38L400-13.38Q400-17.66 401.95-21.44L401.95-21.44L401.95-21.44Q403.90-25.22 407.17-27.46L407.17-27.46L407.17-27.46Q410.43-29.70 414.14-29.70L414.14-29.70L414.14-29.70Q418.82-29.70 421.25-27.33L421.25-27.33L421.25-27.33Q423.68-24.96 423.68-20.42L423.68-20.42L423.68-20.42Q423.68-18.56 423.30-17.28L423.30-17.28L422.46-16.51L404.80-16.51L404.80-16.51Q404.74-10.30 407.26-6.94L407.26-6.94L407.26-6.94Q409.79-3.58 414.34-3.58L414.34-3.58L414.34-3.58Q417.92-3.58 422.14-5.57L422.14-5.57L422.53-5.44L423.23-3.58L423.23-3.58Q420.93-1.92 418.14-0.58L418.14-0.58L418.14-0.58Q415.36 0.77 413.44 0.77L413.44 0.77ZM405.06-18.88L416.64-19.46L416.64-19.46Q417.60-19.58 417.92-19.90L417.92-19.90L417.92-19.90Q418.24-20.22 418.24-21.18L418.24-21.18L418.24-21.18Q418.24-23.74 416.86-25.09L416.86-25.09L416.86-25.09Q415.49-26.43 412.93-26.43L412.93-26.43L412.93-26.43Q409.92-26.43 407.78-24.38L407.78-24.38L407.78-24.38Q405.63-22.34 405.06-18.88L405.06-18.88ZM430.14-2.30L430.14-2.30Q432.06-2.50 432.70-3.55L432.70-3.55L432.70-3.55Q433.34-4.61 433.34-7.62L433.34-7.62L433.34-21.70L433.34-21.70Q433.34-23.81 432.77-24.70L432.77-24.70L432.77-24.70Q432.19-25.60 430.91-25.60L430.91-25.60L430.91-25.60Q430.40-25.60 430.05-25.54L430.05-25.54L430.05-25.54Q429.70-25.47 429.57-25.41L429.57-25.41L429.25-25.86L429.44-27.84L429.44-27.84Q431.87-28.29 434.59-28.93L434.59-28.93L434.59-28.93Q437.31-29.57 438.08-29.76L438.08-29.76L438.53-29.38L438.53-29.38Q438.40-28.80 438.14-26.72L438.14-26.72L438.14-26.72Q437.89-24.64 437.95-22.78L437.95-22.78L438.21-22.59L438.21-22.59Q440.13-25.60 442.72-27.52L442.72-27.52L442.72-27.52Q445.31-29.44 447.23-29.44L447.23-29.44L447.23-29.44Q448.13-29.44 448.61-29.34L448.61-29.34L448.61-29.34Q449.09-29.25 449.22-29.18L449.22-29.18L449.41-28.93L449.41-28.93Q449.28-28.03 448.86-25.12L448.86-25.12L448.86-25.12Q448.45-22.21 448.38-19.78L448.38-19.78L445.89-19.58L445.89-19.58Q445.89-22.21 445.54-23.07L445.54-23.07L445.54-23.07Q445.18-23.94 444.16-23.94L444.16-23.94L444.16-23.94Q442.75-23.94 441.15-22.75L441.15-22.75L441.15-22.75Q439.55-21.57 438.21-19.58L438.21-19.58L438.21-19.58Q438.14-17.73 437.95-13.44L437.95-13.44L437.95-13.44Q437.76-9.15 437.70-6.53L437.70-6.53L437.70-6.53Q437.70-4.35 438.34-3.58L438.34-3.58L438.34-3.58Q438.98-2.82 440.77-2.82L440.77-2.82L440.77-2.82Q441.60-2.82 442.43-2.88L442.43-2.88L442.43-2.88Q443.26-2.94 443.58-2.94L443.58-2.94L443.65-2.69L443.07 0.13L443.07 0.13Q442.43 0.13 440.51 0.06L440.51 0.06L440.51 0.06Q438.59 0 436.54 0L436.54 0L436.54 0Q434.18 0 432.26 0.10L432.26 0.10L432.26 0.10Q430.34 0.19 429.82 0.26L429.82 0.26L430.14-2.30Z" fill="url(#editing-outline-gradient)"></path></g></g><style></style></svg>